<mxfile host="app.diagrams.net" modified="2024-06-03T06:13:03.276Z" agent="Mozilla/5.0 (Windows NT 10.0; Win64; x64) AppleWebKit/537.36 (KHTML, like Gecko) Chrome/125.0.0.0 Safari/537.36" etag="5ZFEAEvSAsoL3P1uuTv0" version="24.4.7" type="github">
  <diagram name="Page-1" id="2o16mBKoci3zqHDQLp27">
    <mxGraphModel dx="2074" dy="1150" grid="1" gridSize="10" guides="1" tooltips="1" connect="1" arrows="1" fold="1" page="1" pageScale="1" pageWidth="850" pageHeight="1100" math="0" shadow="0">
      <root>
        <mxCell id="0" />
        <mxCell id="1" parent="0" />
        <mxCell id="kg8rBEdYaJrjMD-iFUwR-1" value="SMAX" style="swimlane;whiteSpace=wrap;html=1;" parent="1" vertex="1">
          <mxGeometry x="290" width="630" height="670" as="geometry">
            <mxRectangle x="290" width="70" height="30" as="alternateBounds" />
          </mxGeometry>
        </mxCell>
        <mxCell id="SZoX9u52D0fBp4mLfGC0-4" style="edgeStyle=orthogonalEdgeStyle;rounded=0;orthogonalLoop=1;jettySize=auto;html=1;exitX=1;exitY=0.5;exitDx=0;exitDy=0;entryX=0;entryY=0.5;entryDx=0;entryDy=0;fillColor=#d5e8d4;strokeColor=#00ff00;" edge="1" parent="kg8rBEdYaJrjMD-iFUwR-1" source="kg8rBEdYaJrjMD-iFUwR-29" target="kg8rBEdYaJrjMD-iFUwR-45">
          <mxGeometry relative="1" as="geometry" />
        </mxCell>
        <mxCell id="kg8rBEdYaJrjMD-iFUwR-29" value="index worker" style="rounded=1;whiteSpace=wrap;html=1;" parent="kg8rBEdYaJrjMD-iFUwR-1" vertex="1">
          <mxGeometry x="110" y="140" width="120" height="43" as="geometry" />
        </mxCell>
        <mxCell id="kg8rBEdYaJrjMD-iFUwR-76" style="edgeStyle=orthogonalEdgeStyle;rounded=0;orthogonalLoop=1;jettySize=auto;html=1;exitX=1;exitY=0.5;exitDx=0;exitDy=0;entryX=0;entryY=0.5;entryDx=0;entryDy=0;strokeColor=#FF00FF;" parent="kg8rBEdYaJrjMD-iFUwR-1" source="kg8rBEdYaJrjMD-iFUwR-31" target="kg8rBEdYaJrjMD-iFUwR-74" edge="1">
          <mxGeometry relative="1" as="geometry" />
        </mxCell>
        <mxCell id="kg8rBEdYaJrjMD-iFUwR-31" value="Agent widget" style="ellipse;whiteSpace=wrap;html=1;" parent="kg8rBEdYaJrjMD-iFUwR-1" vertex="1">
          <mxGeometry x="20" y="460" width="120" height="80" as="geometry" />
        </mxCell>
        <mxCell id="kg8rBEdYaJrjMD-iFUwR-33" style="edgeStyle=orthogonalEdgeStyle;rounded=0;orthogonalLoop=1;jettySize=auto;html=1;exitX=0.5;exitY=1;exitDx=0;exitDy=0;entryX=0;entryY=0.25;entryDx=0;entryDy=0;fillColor=#CC0066;strokeColor=#00FF00;" parent="kg8rBEdYaJrjMD-iFUwR-1" source="kg8rBEdYaJrjMD-iFUwR-32" target="kg8rBEdYaJrjMD-iFUwR-29" edge="1">
          <mxGeometry relative="1" as="geometry" />
        </mxCell>
        <mxCell id="kg8rBEdYaJrjMD-iFUwR-32" value="EMS data" style="ellipse;whiteSpace=wrap;html=1;" parent="kg8rBEdYaJrjMD-iFUwR-1" vertex="1">
          <mxGeometry x="10" y="50" width="120" height="80" as="geometry" />
        </mxCell>
        <mxCell id="kg8rBEdYaJrjMD-iFUwR-52" value="" style="swimlane;startSize=0;" parent="kg8rBEdYaJrjMD-iFUwR-1" vertex="1">
          <mxGeometry x="415" y="330" width="200" height="290" as="geometry">
            <mxRectangle x="680" y="190" width="50" height="40" as="alternateBounds" />
          </mxGeometry>
        </mxCell>
        <mxCell id="kg8rBEdYaJrjMD-iFUwR-53" value="Aviator svc" style="text;html=1;align=center;verticalAlign=middle;resizable=0;points=[];autosize=1;strokeColor=none;fillColor=none;" parent="kg8rBEdYaJrjMD-iFUwR-52" vertex="1">
          <mxGeometry x="60" width="80" height="30" as="geometry" />
        </mxCell>
        <mxCell id="kg8rBEdYaJrjMD-iFUwR-54" value="chunk" style="whiteSpace=wrap;html=1;" parent="kg8rBEdYaJrjMD-iFUwR-52" vertex="1">
          <mxGeometry x="30" y="30" width="150" height="30" as="geometry" />
        </mxCell>
        <mxCell id="kg8rBEdYaJrjMD-iFUwR-74" value="Chat" style="rounded=0;whiteSpace=wrap;html=1;" parent="kg8rBEdYaJrjMD-iFUwR-52" vertex="1">
          <mxGeometry x="25" y="110" width="150" height="120" as="geometry" />
        </mxCell>
        <mxCell id="SZoX9u52D0fBp4mLfGC0-2" value="index" style="whiteSpace=wrap;html=1;" vertex="1" parent="kg8rBEdYaJrjMD-iFUwR-52">
          <mxGeometry x="30" y="70" width="150" height="30" as="geometry" />
        </mxCell>
        <mxCell id="kg8rBEdYaJrjMD-iFUwR-71" value="" style="strokeWidth=2;html=1;shape=mxgraph.flowchart.database;whiteSpace=wrap;" parent="kg8rBEdYaJrjMD-iFUwR-1" vertex="1">
          <mxGeometry x="430" y="40" width="175" height="260" as="geometry" />
        </mxCell>
        <mxCell id="kg8rBEdYaJrjMD-iFUwR-41" value="IDOL" style="text;html=1;align=center;verticalAlign=middle;resizable=0;points=[];autosize=1;strokeColor=none;fillColor=none;" parent="kg8rBEdYaJrjMD-iFUwR-1" vertex="1">
          <mxGeometry x="492.5" y="50" width="50" height="30" as="geometry" />
        </mxCell>
        <mxCell id="kg8rBEdYaJrjMD-iFUwR-42" value="SAW_ARC" style="whiteSpace=wrap;html=1;" parent="kg8rBEdYaJrjMD-iFUwR-1" vertex="1">
          <mxGeometry x="440" y="130" width="150" height="26" as="geometry" />
        </mxCell>
        <mxCell id="kg8rBEdYaJrjMD-iFUwR-43" value="SAW" style="whiteSpace=wrap;html=1;verticalAlign=top;" parent="kg8rBEdYaJrjMD-iFUwR-1" vertex="1">
          <mxGeometry x="440" y="180" width="150" height="100" as="geometry" />
        </mxCell>
        <mxCell id="kg8rBEdYaJrjMD-iFUwR-48" value="aviator_idol_xxx" style="rounded=1;whiteSpace=wrap;html=1;" parent="kg8rBEdYaJrjMD-iFUwR-1" vertex="1">
          <mxGeometry x="457.5" y="240" width="120" height="30" as="geometry" />
        </mxCell>
        <mxCell id="kg8rBEdYaJrjMD-iFUwR-51" value="xservice_idol_xxx" style="rounded=1;whiteSpace=wrap;html=1;" parent="kg8rBEdYaJrjMD-iFUwR-1" vertex="1">
          <mxGeometry x="457.5" y="200" width="120" height="30" as="geometry" />
        </mxCell>
        <mxCell id="kg8rBEdYaJrjMD-iFUwR-47" style="edgeStyle=orthogonalEdgeStyle;rounded=0;orthogonalLoop=1;jettySize=auto;html=1;exitX=1;exitY=0.5;exitDx=0;exitDy=0;fillColor=#CC0066;strokeColor=#00FF00;entryX=0;entryY=0.5;entryDx=0;entryDy=0;" parent="kg8rBEdYaJrjMD-iFUwR-1" source="kg8rBEdYaJrjMD-iFUwR-45" target="kg8rBEdYaJrjMD-iFUwR-54" edge="1">
          <mxGeometry relative="1" as="geometry">
            <mxPoint x="360" y="450" as="targetPoint" />
          </mxGeometry>
        </mxCell>
        <mxCell id="kg8rBEdYaJrjMD-iFUwR-77" style="edgeStyle=orthogonalEdgeStyle;rounded=0;orthogonalLoop=1;jettySize=auto;html=1;exitX=0.5;exitY=0;exitDx=0;exitDy=0;entryX=0;entryY=0.75;entryDx=0;entryDy=0;strokeColor=#FF00FF;" parent="kg8rBEdYaJrjMD-iFUwR-1" source="kg8rBEdYaJrjMD-iFUwR-25" target="kg8rBEdYaJrjMD-iFUwR-74" edge="1">
          <mxGeometry relative="1" as="geometry">
            <Array as="points">
              <mxPoint x="150" y="570" />
              <mxPoint x="150" y="530" />
            </Array>
          </mxGeometry>
        </mxCell>
        <mxCell id="kg8rBEdYaJrjMD-iFUwR-25" value="mobile" style="ellipse;whiteSpace=wrap;html=1;" parent="kg8rBEdYaJrjMD-iFUwR-1" vertex="1">
          <mxGeometry x="20" y="570" width="120" height="80" as="geometry" />
        </mxCell>
        <mxCell id="kg8rBEdYaJrjMD-iFUwR-78" style="edgeStyle=orthogonalEdgeStyle;rounded=0;orthogonalLoop=1;jettySize=auto;html=1;exitX=0.5;exitY=0;exitDx=0;exitDy=0;entryX=0;entryY=0.75;entryDx=0;entryDy=0;strokeColor=#FF00FF;" parent="kg8rBEdYaJrjMD-iFUwR-1" source="kg8rBEdYaJrjMD-iFUwR-26" target="kg8rBEdYaJrjMD-iFUwR-74" edge="1">
          <mxGeometry relative="1" as="geometry" />
        </mxCell>
        <mxCell id="kg8rBEdYaJrjMD-iFUwR-26" value="teams" style="ellipse;whiteSpace=wrap;html=1;" parent="kg8rBEdYaJrjMD-iFUwR-1" vertex="1">
          <mxGeometry x="150" y="570" width="120" height="80" as="geometry" />
        </mxCell>
        <mxCell id="kg8rBEdYaJrjMD-iFUwR-79" style="edgeStyle=orthogonalEdgeStyle;rounded=0;orthogonalLoop=1;jettySize=auto;html=1;exitX=0.5;exitY=0;exitDx=0;exitDy=0;entryX=0;entryY=0.75;entryDx=0;entryDy=0;strokeColor=#FF00FF;" parent="kg8rBEdYaJrjMD-iFUwR-1" source="kg8rBEdYaJrjMD-iFUwR-27" target="kg8rBEdYaJrjMD-iFUwR-74" edge="1">
          <mxGeometry relative="1" as="geometry" />
        </mxCell>
        <mxCell id="kg8rBEdYaJrjMD-iFUwR-27" value="va" style="ellipse;whiteSpace=wrap;html=1;" parent="kg8rBEdYaJrjMD-iFUwR-1" vertex="1">
          <mxGeometry x="280" y="570" width="120" height="80" as="geometry" />
        </mxCell>
        <mxCell id="kg8rBEdYaJrjMD-iFUwR-80" style="edgeStyle=orthogonalEdgeStyle;rounded=0;orthogonalLoop=1;jettySize=auto;html=1;exitX=1;exitY=0.25;exitDx=0;exitDy=0;entryX=1;entryY=0.5;entryDx=0;entryDy=0;strokeColor=#FF00FF;" parent="kg8rBEdYaJrjMD-iFUwR-1" source="kg8rBEdYaJrjMD-iFUwR-74" target="kg8rBEdYaJrjMD-iFUwR-48" edge="1">
          <mxGeometry relative="1" as="geometry">
            <Array as="points">
              <mxPoint x="620" y="470" />
              <mxPoint x="620" y="255" />
            </Array>
          </mxGeometry>
        </mxCell>
        <mxCell id="SZoX9u52D0fBp4mLfGC0-1" value="" style="edgeStyle=orthogonalEdgeStyle;rounded=0;orthogonalLoop=1;jettySize=auto;html=1;" edge="1" parent="kg8rBEdYaJrjMD-iFUwR-1" source="kg8rBEdYaJrjMD-iFUwR-53" target="kg8rBEdYaJrjMD-iFUwR-48">
          <mxGeometry relative="1" as="geometry" />
        </mxCell>
        <mxCell id="SZoX9u52D0fBp4mLfGC0-6" style="edgeStyle=orthogonalEdgeStyle;rounded=0;orthogonalLoop=1;jettySize=auto;html=1;exitX=0.5;exitY=1;exitDx=0;exitDy=0;entryX=0;entryY=0.5;entryDx=0;entryDy=0;" edge="1" parent="kg8rBEdYaJrjMD-iFUwR-1" source="kg8rBEdYaJrjMD-iFUwR-45" target="SZoX9u52D0fBp4mLfGC0-2">
          <mxGeometry relative="1" as="geometry" />
        </mxCell>
        <mxCell id="SZoX9u52D0fBp4mLfGC0-8" style="edgeStyle=orthogonalEdgeStyle;rounded=0;orthogonalLoop=1;jettySize=auto;html=1;exitX=1;exitY=1;exitDx=0;exitDy=0;entryX=0;entryY=0.5;entryDx=0;entryDy=0;" edge="1" parent="kg8rBEdYaJrjMD-iFUwR-1" source="kg8rBEdYaJrjMD-iFUwR-45" target="kg8rBEdYaJrjMD-iFUwR-48">
          <mxGeometry relative="1" as="geometry" />
        </mxCell>
        <mxCell id="kg8rBEdYaJrjMD-iFUwR-45" value="split doc to chunks" style="rhombus;whiteSpace=wrap;html=1;" parent="kg8rBEdYaJrjMD-iFUwR-1" vertex="1">
          <mxGeometry x="280" y="120" width="80" height="83" as="geometry" />
        </mxCell>
        <mxCell id="kg8rBEdYaJrjMD-iFUwR-23" value="AIS" style="swimlane;whiteSpace=wrap;html=1;" parent="1" vertex="1">
          <mxGeometry x="1050" width="830" height="670" as="geometry" />
        </mxCell>
        <mxCell id="kg8rBEdYaJrjMD-iFUwR-64" value="Aviator core" style="swimlane;whiteSpace=wrap;html=1;" parent="kg8rBEdYaJrjMD-iFUwR-23" vertex="1">
          <mxGeometry x="30" y="40" width="730" height="320" as="geometry" />
        </mxCell>
        <mxCell id="kg8rBEdYaJrjMD-iFUwR-60" value="adaptive&amp;nbsp;&lt;div&gt;chunk&lt;/div&gt;" style="rhombus;whiteSpace=wrap;html=1;" parent="kg8rBEdYaJrjMD-iFUwR-64" vertex="1">
          <mxGeometry x="30" y="60" width="80" height="80" as="geometry" />
        </mxCell>
        <mxCell id="kg8rBEdYaJrjMD-iFUwR-68" value="adaptive&amp;nbsp;&lt;div&gt;chunk&lt;/div&gt;" style="rhombus;whiteSpace=wrap;html=1;" parent="kg8rBEdYaJrjMD-iFUwR-64" vertex="1">
          <mxGeometry x="270" y="230" width="110" height="80" as="geometry" />
        </mxCell>
        <mxCell id="kg8rBEdYaJrjMD-iFUwR-85" style="edgeStyle=orthogonalEdgeStyle;rounded=0;orthogonalLoop=1;jettySize=auto;html=1;exitX=1;exitY=0.5;exitDx=0;exitDy=0;entryX=0;entryY=0.5;entryDx=0;entryDy=0;strokeColor=#FF00FF;" parent="kg8rBEdYaJrjMD-iFUwR-64" source="kg8rBEdYaJrjMD-iFUwR-81" target="kg8rBEdYaJrjMD-iFUwR-84" edge="1">
          <mxGeometry relative="1" as="geometry" />
        </mxCell>
        <mxCell id="kg8rBEdYaJrjMD-iFUwR-81" value="chat" style="rhombus;whiteSpace=wrap;html=1;" parent="kg8rBEdYaJrjMD-iFUwR-64" vertex="1">
          <mxGeometry x="30" y="170" width="80" height="80" as="geometry" />
        </mxCell>
        <mxCell id="kg8rBEdYaJrjMD-iFUwR-87" style="edgeStyle=orthogonalEdgeStyle;rounded=0;orthogonalLoop=1;jettySize=auto;html=1;exitX=1;exitY=0.5;exitDx=0;exitDy=0;entryX=0;entryY=0.5;entryDx=0;entryDy=0;strokeColor=#FF00FF;" parent="kg8rBEdYaJrjMD-iFUwR-64" source="kg8rBEdYaJrjMD-iFUwR-84" target="kg8rBEdYaJrjMD-iFUwR-86" edge="1">
          <mxGeometry relative="1" as="geometry" />
        </mxCell>
        <mxCell id="kg8rBEdYaJrjMD-iFUwR-84" value="re-rank" style="rhombus;whiteSpace=wrap;html=1;" parent="kg8rBEdYaJrjMD-iFUwR-64" vertex="1">
          <mxGeometry x="180" y="170" width="80" height="80" as="geometry" />
        </mxCell>
        <mxCell id="kg8rBEdYaJrjMD-iFUwR-86" value="de-duplication" style="rhombus;whiteSpace=wrap;html=1;" parent="kg8rBEdYaJrjMD-iFUwR-64" vertex="1">
          <mxGeometry x="330" y="170" width="110" height="80" as="geometry" />
        </mxCell>
        <mxCell id="kg8rBEdYaJrjMD-iFUwR-72" value="VDB" style="strokeWidth=2;html=1;shape=mxgraph.flowchart.database;whiteSpace=wrap;" parent="kg8rBEdYaJrjMD-iFUwR-23" vertex="1">
          <mxGeometry x="80" y="550" width="300" height="60" as="geometry" />
        </mxCell>
        <mxCell id="kg8rBEdYaJrjMD-iFUwR-73" style="edgeStyle=orthogonalEdgeStyle;rounded=0;orthogonalLoop=1;jettySize=auto;html=1;exitX=0.5;exitY=1;exitDx=0;exitDy=0;entryX=0.921;entryY=0.089;entryDx=0;entryDy=0;entryPerimeter=0;fillColor=#CC0066;strokeColor=#00FF00;" parent="kg8rBEdYaJrjMD-iFUwR-23" source="kg8rBEdYaJrjMD-iFUwR-68" target="kg8rBEdYaJrjMD-iFUwR-72" edge="1">
          <mxGeometry relative="1" as="geometry" />
        </mxCell>
        <mxCell id="kg8rBEdYaJrjMD-iFUwR-83" style="edgeStyle=orthogonalEdgeStyle;rounded=0;orthogonalLoop=1;jettySize=auto;html=1;exitX=0.5;exitY=1;exitDx=0;exitDy=0;entryX=0.069;entryY=0.111;entryDx=0;entryDy=0;entryPerimeter=0;strokeColor=#FF00FF;" parent="kg8rBEdYaJrjMD-iFUwR-23" source="kg8rBEdYaJrjMD-iFUwR-81" target="kg8rBEdYaJrjMD-iFUwR-72" edge="1">
          <mxGeometry relative="1" as="geometry" />
        </mxCell>
        <mxCell id="kg8rBEdYaJrjMD-iFUwR-75" style="edgeStyle=orthogonalEdgeStyle;rounded=0;orthogonalLoop=1;jettySize=auto;html=1;exitX=1;exitY=0.5;exitDx=0;exitDy=0;entryX=0;entryY=0.25;entryDx=0;entryDy=0;strokeColor=#FF00FF;" parent="1" source="kg8rBEdYaJrjMD-iFUwR-24" target="kg8rBEdYaJrjMD-iFUwR-74" edge="1">
          <mxGeometry relative="1" as="geometry" />
        </mxCell>
        <mxCell id="kg8rBEdYaJrjMD-iFUwR-24" value="OpsB widget" style="ellipse;whiteSpace=wrap;html=1;" parent="1" vertex="1">
          <mxGeometry x="140" y="410" width="120" height="80" as="geometry" />
        </mxCell>
        <mxCell id="kg8rBEdYaJrjMD-iFUwR-30" style="edgeStyle=orthogonalEdgeStyle;rounded=0;orthogonalLoop=1;jettySize=auto;html=1;exitX=1;exitY=0.5;exitDx=0;exitDy=0;entryX=0;entryY=0.5;entryDx=0;entryDy=0;fillColor=#CC0066;strokeColor=#00FF00;" parent="1" source="kg8rBEdYaJrjMD-iFUwR-28" target="kg8rBEdYaJrjMD-iFUwR-29" edge="1">
          <mxGeometry relative="1" as="geometry" />
        </mxCell>
        <mxCell id="kg8rBEdYaJrjMD-iFUwR-28" value="Web connector" style="rhombus;whiteSpace=wrap;html=1;" parent="1" vertex="1">
          <mxGeometry x="140" y="121.5" width="90" height="80" as="geometry" />
        </mxCell>
        <mxCell id="kg8rBEdYaJrjMD-iFUwR-61" style="edgeStyle=orthogonalEdgeStyle;rounded=0;orthogonalLoop=1;jettySize=auto;html=1;exitX=1;exitY=0.25;exitDx=0;exitDy=0;entryX=0;entryY=0.5;entryDx=0;entryDy=0;fillColor=#CC0066;strokeColor=#00FF00;" parent="1" source="kg8rBEdYaJrjMD-iFUwR-54" target="kg8rBEdYaJrjMD-iFUwR-60" edge="1">
          <mxGeometry relative="1" as="geometry" />
        </mxCell>
        <mxCell id="kg8rBEdYaJrjMD-iFUwR-82" style="edgeStyle=orthogonalEdgeStyle;rounded=0;orthogonalLoop=1;jettySize=auto;html=1;exitX=1;exitY=0.5;exitDx=0;exitDy=0;entryX=0;entryY=0.5;entryDx=0;entryDy=0;strokeColor=#FF00FF;" parent="1" source="kg8rBEdYaJrjMD-iFUwR-74" target="kg8rBEdYaJrjMD-iFUwR-81" edge="1">
          <mxGeometry relative="1" as="geometry">
            <Array as="points">
              <mxPoint x="1020" y="500" />
              <mxPoint x="1020" y="250" />
            </Array>
          </mxGeometry>
        </mxCell>
        <mxCell id="kg8rBEdYaJrjMD-iFUwR-88" value="completion model" style="ellipse;shape=cloud;whiteSpace=wrap;html=1;" parent="1" vertex="1">
          <mxGeometry x="1560" y="710" width="340" height="120" as="geometry" />
        </mxCell>
        <mxCell id="kg8rBEdYaJrjMD-iFUwR-89" style="edgeStyle=orthogonalEdgeStyle;rounded=0;orthogonalLoop=1;jettySize=auto;html=1;exitX=1;exitY=0.5;exitDx=0;exitDy=0;entryX=0.4;entryY=0.1;entryDx=0;entryDy=0;entryPerimeter=0;strokeColor=#FF00FF;" parent="1" source="kg8rBEdYaJrjMD-iFUwR-86" target="kg8rBEdYaJrjMD-iFUwR-88" edge="1">
          <mxGeometry relative="1" as="geometry" />
        </mxCell>
      </root>
    </mxGraphModel>
  </diagram>
</mxfile>
